<?xml version="1.0" encoding="utf-8"?>
<!DOCTYPE svg PUBLIC "-//W3C//DTD SVG 1.1//EN" "http://www.w3.org/Graphics/SVG/1.1/DTD/svg11.dtd">
<svg version="1.1" id="freifunk.net_logo" xmlns:svg="http://www.w3.org/2000/svg"
	 xmlns="http://www.w3.org/2000/svg" xmlns:xlink="http://www.w3.org/1999/xlink" x="0px" y="0px" width="235.614px"
	 height="172.768px" viewBox="7.212 0.292 235.614 172.768" enable-background="new 7.212 0.292 235.614 172.768"
	 xml:space="preserve">
<path id="path1" fill="none" d="M156.805,0.292c47.51,0,86.021,38.674,86.021,86.383s-38.512,86.385-86.021,86.385
	c-47.508,0-86.02-38.676-86.02-86.385S109.297,0.292,156.805,0.292z"/>
<path id="path2" fill="none" d="M67.451,51.553c33.27,0,60.239,27.083,60.239,60.493c0,33.411-26.97,60.493-60.239,60.493
	S7.212,145.457,7.212,112.046C7.212,78.636,34.182,51.553,67.451,51.553z"/>
<path id="path3" fill="none" stroke="#DE2C68" stroke-width="2.5287" d="M67.451,61.636c27.725,0,50.199,22.569,50.199,50.411
	c0,27.842-22.475,50.411-50.199,50.411c-27.725,0-50.2-22.568-50.2-50.411C17.251,84.205,39.727,61.636,67.451,61.636z"/>
<path id="path4" fill="#FFCC33" d="M68.751,100.604L56.199,87.995H44.378l8.368,8.406H35.998v8.408h16.749l-8.368,8.406h11.821
	l12.552-12.609V100.604z"/>
<path id="path5" fill="none" stroke="#DE2C68" stroke-width="15.1194" d="M156.805,16.101c38.814,0,70.279,31.597,70.279,70.575
	c0,38.978-31.465,70.574-70.279,70.574c-38.813,0-70.278-31.597-70.278-70.574C86.527,47.698,117.991,16.101,156.805,16.101
	L156.805,16.101z"/>
<path id="path6" fill="none" stroke="#DE2C68" stroke-width="2.5287" d="M156.805,32.59c29.746,0,53.859,24.215,53.859,54.086
	s-24.113,54.086-53.859,54.086c-29.745,0-53.858-24.215-53.858-54.086S127.06,32.59,156.805,32.59L156.805,32.59z"/>
<path id="path7" fill="#FFCC33" d="M131.789,100.604l21.252-21.349h20.015l-14.168,14.233h28.36v14.231h-28.36l14.168,14.232
	h-20.015l-21.252-21.349V100.604z"/>
</svg>
